<svg viewBox="0 0 1200 630" fill="none" xmlns="http://www.w3.org/2000/svg">
  
  <defs>
    <linearGradient id="bg" x1="0" y1="0" x2="1200" y2="630" gradientUnits="userSpaceOnUse">
      <stop offset="0%" stop-color="#0D1B2A"></stop>
      <stop offset="100%" stop-color="#1A3A5C"></stop>
    </linearGradient>
    <linearGradient id="arcLine1" x1="0%" y1="0%" x2="100%" y2="100%">
      <stop offset="0%" stop-color="#ACC6E9" stop-opacity="0.15"></stop>
      <stop offset="100%" stop-color="#ACC6E9" stop-opacity="0"></stop>
    </linearGradient>
    <linearGradient id="arcLine2" x1="0%" y1="0%" x2="100%" y2="100%">
      <stop offset="0%" stop-color="#3898EC" stop-opacity="0.1"></stop>
      <stop offset="100%" stop-color="#3898EC" stop-opacity="0"></stop>
    </linearGradient>
  </defs>

  
  <rect width="1200" height="630" fill="url(#bg)"></rect>

  
  <circle cx="1100" cy="-100" r="600" stroke="url(#arcLine1)" stroke-width="1.5" fill="none"></circle>
  <circle cx="1100" cy="-100" r="750" stroke="url(#arcLine2)" stroke-width="1" fill="none"></circle>
  <circle cx="1100" cy="-100" r="900" stroke="url(#arcLine1)" stroke-width="0.75" fill="none"></circle>

  
  <pattern id="dots" width="40" height="40" patternUnits="userSpaceOnUse">
    <circle cx="20" cy="20" r="1" fill="#ACC6E9" fill-opacity="0.06"></circle>
  </pattern>
  <rect width="1200" height="630" fill="url(#dots)"></rect>

  
  <text x="100" y="220" font-family="&#39;Space Mono&#39;, &#39;Courier New&#39;, monospace" font-size="14" letter-spacing="2.5" fill="#C9893A">{BUILT ON ARC}</text>

  
  <g transform="translate(100, 240) scale(2.2)">
    <circle cx="5" cy="24" r="3.5" fill="#ACC6E9"></circle>
    <path d="M8.5 24 C13 24 13 15 19.5 15 C26 15 26 33 32.5 33 C37 33 38.5 27 39.5 24" stroke="#ACC6E9" stroke-width="2.5" stroke-linecap="round" fill="none"></path>
    <path d="M37 19.5 L43 24 L37 28.5" stroke="#3898EC" stroke-width="2.5" stroke-linecap="round" stroke-linejoin="round" fill="none"></path>
    <circle cx="43" cy="24" r="1.5" fill="#3898EC"></circle>
  </g>

  
  <text x="100" y="420" font-family="&#39;Space Grotesk&#39;, &#39;Arial&#39;, sans-serif" font-size="96" letter-spacing="-3">
    <tspan font-weight="300" fill="#FFFFFF">Trust</tspan><tspan font-weight="700" fill="#ACC6E9">Flow</tspan>
  </text>

  
  <text x="100" y="468" font-family="&#39;DM Sans&#39;, &#39;Arial&#39;, sans-serif" font-size="20" font-weight="400" fill="#7A9FC4">Per-second USDC subscriptions · Onchain · Cancel anytime</text>

  
  <line x1="100" y1="510" x2="360" y2="510" stroke="#ACC6E9" stroke-width="1" stroke-opacity="0.25"></line>

  
  <text x="100" y="548" font-family="&#39;Space Mono&#39;, &#39;Courier New&#39;, monospace" font-size="13" letter-spacing="2" fill="#ACC6E9" fill-opacity="0.5">STREAM · TRUST · VERIFY</text>

  
  <rect x="780" y="230" width="320" height="44" rx="8" fill="#ACC6E9" fill-opacity="0.08" stroke="#ACC6E9" stroke-width="1" stroke-opacity="0.25"></rect>
  <text x="940" y="258" text-anchor="middle" font-family="&#39;DM Sans&#39;, &#39;Arial&#39;, sans-serif" font-size="14" fill="#ACC6E9">Per-second billing</text>

  <rect x="780" y="290" width="320" height="44" rx="8" fill="#3898EC" fill-opacity="0.08" stroke="#3898EC" stroke-width="1" stroke-opacity="0.25"></rect>
  <text x="940" y="318" text-anchor="middle" font-family="&#39;DM Sans&#39;, &#39;Arial&#39;, sans-serif" font-size="14" fill="#7AB8E8">Dispute resolution</text>

  <rect x="780" y="350" width="320" height="44" rx="8" fill="#ACC6E9" fill-opacity="0.08" stroke="#ACC6E9" stroke-width="1" stroke-opacity="0.25"></rect>
  <text x="940" y="378" text-anchor="middle" font-family="&#39;DM Sans&#39;, &#39;Arial&#39;, sans-serif" font-size="14" fill="#ACC6E9">Cancel anytime</text>

  <rect x="780" y="410" width="320" height="44" rx="8" fill="#3898EC" fill-opacity="0.08" stroke="#3898EC" stroke-width="1" stroke-opacity="0.25"></rect>
  <text x="940" y="438" text-anchor="middle" font-family="&#39;DM Sans&#39;, &#39;Arial&#39;, sans-serif" font-size="14" fill="#7AB8E8">USDC native</text>
</svg>